<?xml version="1.0" standalone="no"?>
<!DOCTYPE svg PUBLIC "-//W3C//DTD SVG 1.1//EN" "http://www.w3.org/Graphics/SVG/1.1/DTD/svg11.dtd">
<svg version="1.1" xmlns="http://www.w3.org/2000/svg" viewBox="0 0 941 483" width="1882" height="966"><!-- svg-source:excalidraw --><metadata></metadata><defs><style class="style-fonts">
path { fill: #6741d9; }
        @media (prefers-color-scheme: dark) {
            path { fill: #FFF; }
        }
      </style></defs><g transform="translate(100 116) rotate(0 148 120.5)" stroke="none"><path fill="#6741d9" d="M 6.77,0 Q 6.77,0 6.57,18.4 6.36,36.8 6.21,58.41 6.06,80.03 5.95,101.87 5.84,123.71 5.76,145.07 5.67,166.42 5.62,187.58 5.56,208.73 6.38,228.52 7.19,248.32 8.39,264.46 9.58,280.60 10.37,291.23 11.15,301.87 11.97,307.21 12.78,312.56 12.74,313.32 12.71,314.08 12.50,314.81 12.28,315.54 11.90,316.20 11.51,316.85 10.98,317.40 10.45,317.95 9.81,318.35 9.17,318.75 8.44,318.99 7.72,319.23 6.96,319.29 6.20,319.34 5.45,319.22 4.70,319.09 4.00,318.79 3.31,318.49 2.70,318.03 2.09,317.57 1.62,316.98 1.14,316.39 0.81,315.70 0.49,315.01 0.34,314.26 0.19,313.52 -3.65,290.84 -7.51,268.15 -13.55,236.23 -19.59,204.31 -25.30,169.95 -31.02,135.60 -34.88,102.49 -38.73,69.38 -40.36,44.30 -41.99,19.22 -42.38,2.75 -42.78,-13.71 -40.60,-28.03 -38.43,-42.35 -34.53,-54.14 -30.63,-65.93 -25.30,-75.02 -19.98,-84.11 -12.08,-90.99 -4.18,-97.87 5.10,-101.79 14.38,-105.71 24.59,-106.79 34.80,-107.87 45.62,-104.36 56.44,-100.85 65.24,-93.32 74.04,-85.79 78.92,-71.45 83.80,-57.10 83.10,-36.19 82.41,-15.28 73.84,6.69 65.28,28.67 53.74,47.28 42.20,65.89 32.29,77.93 22.39,89.97 15.14,96.66 7.90,103.35 3.28,107.45 -1.32,111.55 -5.51,115.15 -9.69,118.75 -10.38,118.98 -11.07,119.21 -11.91,119.66 -12.75,120.12 -13.67,120.35 -14.60,120.59 -15.55,120.60 -16.50,120.61 -17.43,120.39 -18.36,120.17 -19.20,119.74 -20.05,119.30 -20.77,118.68 -21.49,118.05 -22.04,117.27 -22.59,116.50 -22.93,115.61 -23.28,114.72 -23.40,113.78 -23.53,112.83 -23.42,111.89 -23.32,110.94 -22.99,110.04 -22.66,109.15 -22.13,108.36 -21.59,107.57 -20.89,106.93 -20.18,106.29 -10.07,98.09 0.03,89.89 20.65,81.16 41.27,72.43 66.54,68.22 91.82,64.00 118.30,66.94 144.78,69.87 164.04,76.49 183.31,83.10 197.52,91.62 211.74,100.13 222.21,112.27 232.69,124.41 240.10,139.99 247.51,155.58 251.53,172.84 255.55,190.11 255.80,207.29 256.05,224.47 251.69,240.05 247.33,255.64 238.26,269.29 229.19,282.94 212.56,295.92 195.93,308.90 171.27,319.38 146.62,329.86 116.36,336.33 86.11,342.80 54.93,344.68 23.76,346.55 0.27,342.39 -23.20,338.24 -40.21,329.93 -57.21,321.63 -67.20,313.88 -77.19,306.13 -82.60,298.93 -88.01,291.73 -86.17,280.64 -84.33,269.56 -73.42,255.88 -62.50,242.20 -43.78,228.61 -25.05,215.02 -6.79,206.61 11.46,198.20 27.22,194.01 42.99,189.82 57.39,188.33 71.79,186.83 84.29,187.95 96.78,189.07 106.54,191.34 116.29,193.60 126.06,195.98 135.83,198.36 148.69,200.48 161.55,202.61 175.52,203.79 189.49,204.97 203.43,205.47 217.38,205.98 228.87,205.34 240.36,204.70 249.32,203.03 258.29,201.36 264.61,198.77 270.94,196.19 275.62,191.13 280.29,186.08 281.67,181.83 283.04,177.58 287.82,179.88 292.60,182.18 296.03,187.64 299.46,193.10 299.69,198.55 299.91,204.01 301.35,209.41 302.80,214.81 308.24,218.02 313.68,221.24 319.11,221.36 324.54,221.49 329.30,219.35 334.07,217.21 337.78,213.91 341.48,210.62 345.58,204.35 349.67,198.08 351.14,193.86 352.60,189.65 353.68,181.44 354.77,173.23 353.76,167.08 352.75,160.93 360.87,160.50 368.99,160.08 370.01,166.77 371.04,173.46 371.13,182.37 371.22,191.28 371.44,199.37 371.66,207.46 372.29,213.39 372.93,219.32 374.14,225.94 375.35,232.56 380.20,231.33 385.06,230.11 386.99,230.27 388.91,230.43 390.68,231.20 392.45,231.97 393.88,233.26 395.31,234.56 396.25,236.24 397.20,237.92 397.56,239.81 397.91,241.71 397.65,243.62 397.38,245.53 396.52,247.26 395.66,248.98 394.29,250.34 392.92,251.70 391.19,252.55 389.46,253.40 387.55,253.66 385.63,253.91 383.74,253.54 381.85,253.17 380.17,252.22 378.50,251.26 377.21,249.82 375.93,248.38 375.17,246.61 374.42,244.83 374.27,242.91 374.12,240.99 374.59,239.12 375.06,237.25 376.10,235.63 377.15,234.01 378.65,232.80 380.16,231.60 381.97,230.94 383.79,230.28 385.71,230.23 387.64,230.19 389.49,230.76 391.33,231.33 392.89,232.46 394.45,233.59 395.57,235.16 396.69,236.73 397.25,238.58 397.81,240.42 397.75,242.35 397.70,244.28 397.02,246.09 396.35,247.90 395.14,249.40 393.93,250.90 392.30,251.93 390.67,252.96 388.80,253.42 386.92,253.88 386.92,253.88 386.93,253.88 381.98,254.22 377.03,254.55 370.41,253.23 363.80,251.90 360.39,246.69 356.99,241.48 356.50,235.65 356.02,229.81 355.71,225.38 355.41,220.95 354.93,214.89 354.44,208.83 353.38,200.89 352.32,192.95 350.77,183.08 349.21,173.21 348.86,165.49 348.51,157.77 350.46,153.59 352.41,149.40 358.17,146.79 363.93,144.18 369.15,149.31 374.36,154.44 374.81,159.21 375.27,163.99 375.58,169.55 375.90,175.12 375.29,180.66 374.69,186.20 373.37,191.50 372.05,196.80 369.90,202.36 367.75,207.93 364.74,212.91 361.73,217.89 358.00,221.72 354.28,225.55 348.36,230.50 342.43,235.44 334.02,239.16 325.60,242.88 317.60,243.26 309.60,243.64 301.75,241.82 293.90,240.00 288.07,232.36 282.24,224.72 281.37,219.44 280.51,214.15 279.88,209.60 279.25,205.04 278.91,199.04 278.57,193.04 278.85,183.91 279.13,174.78 282.92,170.74 286.72,166.70 293.63,170.44 300.53,174.18 299.65,180.06 298.76,185.93 295.41,190.70 292.06,195.47 288.21,199.24 284.37,203.01 279.62,205.03 274.87,207.05 267.54,209.37 260.21,211.69 250.58,213.45 240.95,215.20 228.97,215.85 217.00,216.50 202.80,215.98 188.60,215.46 174.22,214.23 159.84,213.00 146.59,210.81 133.34,208.61 123.61,206.25 113.89,203.89 104.84,201.75 95.78,199.62 84.31,198.51 72.84,197.40 59.26,198.77 45.69,200.14 30.80,204.04 15.91,207.95 -1.42,215.88 -18.76,223.81 -36.44,236.50 -54.12,249.19 -63.94,260.81 -73.75,272.43 -76.03,280.28 -78.31,288.13 -74.48,293.02 -70.64,297.91 -61.58,305.06 -52.51,312.22 -36.87,320.07 -21.23,327.91 0.98,331.97 23.20,336.04 53.57,334.26 83.93,332.48 113.24,326.30 142.55,320.11 166.04,310.29 189.54,300.47 205.02,288.68 220.51,276.88 228.83,264.72 237.15,252.56 241.25,238.52 245.34,224.47 245.18,208.48 245.02,192.49 241.32,176.34 237.62,160.18 230.91,145.85 224.21,131.51 215.01,120.61 205.80,109.70 192.66,101.87 179.52,94.04 161.46,87.91 143.41,81.77 118.60,79.07 93.80,76.36 70.12,80.52 46.44,84.67 27.64,92.93 8.83,101.19 -1.12,110.20 -11.07,119.21 -11.91,119.66 -12.75,120.12 -13.67,120.35 -14.60,120.59 -15.55,120.60 -16.50,120.61 -17.43,120.39 -18.35,120.17 -19.20,119.74 -20.05,119.30 -20.77,118.68 -21.49,118.05 -22.04,117.27 -22.59,116.50 -22.93,115.61 -23.28,114.72 -23.40,113.78 -23.53,112.83 -23.42,111.89 -23.32,110.94 -22.99,110.05 -22.66,109.15 -22.13,108.36 -21.59,107.57 -20.89,106.93 -20.18,106.30 -19.02,106.20 -17.85,106.11 -13.31,103.96 -8.77,101.81 -3.99,98.71 0.79,95.61 7.54,89.44 14.29,83.27 23.79,71.79 33.28,60.32 44.40,42.54 55.52,24.77 63.73,4.43 71.94,-15.89 72.84,-35.02 73.74,-54.14 70.20,-66.35 66.66,-78.55 59.70,-84.80 52.75,-91.04 44.08,-94.23 35.42,-97.41 26.84,-96.66 18.26,-95.90 10.39,-92.81 2.53,-89.72 -4.21,-84.14 -10.96,-78.57 -15.75,-70.54 -20.53,-62.51 -24.19,-51.61 -27.84,-40.70 -29.91,-27.33 -31.98,-13.95 -31.55,2.27 -31.11,18.50 -29.43,43.29 -27.75,68.08 -23.83,100.90 -19.90,133.73 -14.07,167.93 -8.24,202.12 -1.99,234.09 4.25,266.05 8.51,289.31 12.78,312.56 12.74,313.32 12.71,314.08 12.50,314.81 12.28,315.54 11.90,316.20 11.51,316.85 10.98,317.40 10.46,317.95 9.81,318.35 9.17,318.75 8.44,318.99 7.72,319.23 6.96,319.29 6.20,319.34 5.45,319.22 4.70,319.09 4.00,318.79 3.31,318.49 2.70,318.03 2.09,317.57 1.62,316.98 1.14,316.39 0.81,315.70 0.49,315.01 0.34,314.26 0.19,313.52 0.32,308.10 0.44,302.68 -0.38,292.05 -1.21,281.42 -2.48,265.11 -3.74,248.79 -4.65,228.76 -5.56,208.73 -5.62,187.58 -5.67,166.42 -5.76,145.07 -5.84,123.71 -5.95,101.87 -6.06,80.03 -6.21,58.41 -6.36,36.8 -6.57,18.4 -6.77,0 -6.67,-0.81 -6.58,-1.62 -6.29,-2.38 -6.00,-3.14 -5.53,-3.82 -5.07,-4.49 -4.46,-5.03 -3.84,-5.57 -3.12,-5.95 -2.40,-6.33 -1.60,-6.53 -0.81,-6.72 0.00,-6.72 0.81,-6.72 1.61,-6.53 2.40,-6.33 3.12,-5.95 3.85,-5.57 4.46,-5.03 5.07,-4.49 5.53,-3.82 6.00,-3.14 6.29,-2.38 6.58,-1.62 6.67,-0.81 6.77,0.00 6.77,0.00 L 6.77,0 Z"></path></g><g transform="translate(485 80) rotate(0 2 167.5)" stroke="none"><path fill="#6741d9" d="M 6.24,0 Q 6.24,0 6.11,14.37 5.97,28.74 5.87,48.94 5.77,69.14 5.70,86.63 5.63,104.13 6.15,122.41 6.67,140.68 7.17,156.24 7.66,171.80 8.72,190.43 9.78,209.05 10.22,226.28 10.67,243.51 10.85,254.84 11.03,266.18 11.11,277.92 11.18,289.65 11.00,297.90 10.83,306.14 10.22,312.59 9.60,319.05 8.98,325.44 8.36,331.84 2.47,336.98 -3.42,342.12 -4.68,341.68 -5.94,341.24 -6.99,340.42 -8.04,339.60 -8.78,338.49 -9.52,337.38 -9.86,336.09 -10.20,334.80 -10.12,333.47 -10.03,332.13 -9.52,330.90 -9.02,329.67 -8.14,328.66 -7.27,327.65 -6.11,326.98 -4.96,326.30 -3.66,326.03 -2.35,325.75 -1.03,325.91 0.29,326.07 1.49,326.65 2.70,327.22 3.66,328.15 4.62,329.08 5.23,330.26 5.84,331.45 6.04,332.77 6.24,334.09 6.01,335.40 5.78,336.71 5.14,337.89 4.51,339.06 3.53,339.97 2.55,340.87 1.33,341.42 0.11,341.97 -1.20,342.10 -2.53,342.23 -3.83,341.92 -5.13,341.62 -6.27,340.92 -7.40,340.22 -8.26,339.20 -9.11,338.17 -9.59,336.92 -10.07,335.68 -10.13,334.35 -10.18,333.01 -9.81,331.73 -9.44,330.45 -8.68,329.35 -7.92,328.26 -6.85,327.46 -5.78,326.67 -4.51,326.25 -3.24,325.84 -1.90,325.86 -0.57,325.87 -0.57,325.87 -0.57,325.87 -3.60,326.82 -6.63,327.77 -4.68,322.42 -2.74,317.07 -1.41,311.43 -0.08,305.79 0.24,297.76 0.56,289.73 0.47,278.05 0.38,266.37 0.16,255.08 -0.04,243.80 -0.52,226.74 -0.99,209.68 -2.11,190.93 -3.23,172.17 -3.80,156.60 -4.37,141.03 -5.00,122.58 -5.63,104.13 -5.70,86.63 -5.77,69.14 -5.87,48.94 -5.97,28.74 -6.11,14.37 -6.24,0 -6.15,-0.74 -6.06,-1.49 -5.80,-2.19 -5.53,-2.90 -5.10,-3.52 -4.67,-4.14 -4.11,-4.64 -3.54,-5.14 -2.88,-5.49 -2.21,-5.84 -1.48,-6.02 -0.75,-6.20 0.00,-6.20 0.75,-6.20 1.48,-6.02 2.21,-5.84 2.88,-5.49 3.55,-5.14 4.11,-4.64 4.67,-4.14 5.10,-3.52 5.53,-2.90 5.80,-2.19 6.06,-1.49 6.15,-0.74 6.24,0.00 6.24,0.00 L 6.24,0 Z"></path></g><g transform="translate(549 142) rotate(0 76 140)" stroke="none"><path fill="#6741d9" d="M 7.05,0 Q 7.05,0 6.92,8.04 6.79,16.09 6.70,24.12 6.61,32.14 6.43,40.72 6.24,49.31 5.88,57.67 5.51,66.03 4.01,73.83 2.51,81.64 -0.23,89.21 -2.98,96.78 -6.90,104.18 -10.83,111.58 -15.86,118.61 -20.89,125.63 -25.89,131.65 -30.89,137.67 -35.51,142.93 -40.12,148.18 -43.63,152.32 -47.14,156.46 -51.78,160.87 -56.41,165.28 -60.64,166.71 -64.86,168.14 -69.79,164.89 -74.73,161.64 -74.53,157.06 -74.34,152.48 -69.71,147.61 -65.08,142.74 -57.99,141.86 -50.90,140.98 -44.28,145.95 -37.65,150.92 -30.82,158.25 -23.98,165.58 -17.17,173.51 -10.37,181.44 -4.40,189.01 1.56,196.58 7.48,204.52 13.40,212.45 18.63,218.90 23.85,225.34 29.20,231.15 34.54,236.96 39.88,241.44 45.21,245.93 51.67,250.04 58.12,254.15 64.91,256.91 71.70,259.66 77.06,260.77 82.42,261.89 87.02,261.59 91.62,261.29 96.24,258.95 100.86,256.61 106.06,252.25 111.25,247.89 116.09,242.26 120.93,236.64 124.55,230.88 128.17,225.13 130.26,219.62 132.34,214.11 133.46,206.24 134.58,198.37 133.25,187.64 131.92,176.92 129.77,168.36 127.62,159.80 124.87,155.06 122.11,150.32 118.35,147.74 114.60,145.17 107.61,141.51 100.62,137.86 91.92,134.42 83.22,130.98 77.00,129.56 70.77,128.14 64.34,127.47 57.91,126.80 54.36,132.83 50.82,138.87 49.84,144.54 48.87,150.21 48.20,157.02 47.54,163.83 47.55,170.30 47.56,176.77 48.74,181.70 49.92,186.64 52.33,192.30 54.74,197.96 58.50,203.53 62.25,209.10 66.99,213.85 71.73,218.61 76.81,222.54 81.90,226.46 85.98,229.12 90.06,231.79 94.41,233.80 98.76,235.80 103.39,236.83 108.02,237.85 112.82,238.57 117.63,239.28 122.43,238.11 127.24,236.93 131.07,234.64 134.90,232.35 138.65,229.38 142.40,226.40 146.50,223.02 150.61,219.64 154.74,215.73 158.87,211.82 163.12,206.58 167.37,201.33 172.00,193.58 176.63,185.82 180.40,174.94 184.17,164.06 186.19,146.07 188.21,128.08 187.78,105.01 187.36,81.94 184.14,59.67 180.91,37.40 177.32,20.78 173.73,4.15 170.53,-8.06 167.33,-20.28 165.01,-27.71 162.68,-35.14 159.55,-40.47 156.41,-45.79 156.19,-46.67 155.98,-47.54 155.98,-48.44 155.98,-49.34 156.19,-50.21 156.41,-51.09 156.83,-51.89 157.24,-52.68 157.84,-53.36 158.44,-54.03 159.18,-54.54 159.92,-55.05 160.76,-55.37 161.60,-55.69 162.50,-55.80 163.39,-55.91 164.28,-55.80 165.18,-55.69 166.02,-55.37 166.86,-55.05 167.60,-54.54 168.34,-54.03 168.94,-53.36 169.53,-52.68 169.95,-51.89 170.37,-51.09 169.62,-44.28 168.87,-37.47 167.93,-15.70 166.99,6.07 167.33,37.56 167.66,69.06 171.72,98.24 175.79,127.42 181.46,153.29 187.14,179.16 192.37,198.76 197.61,218.36 200.99,232.28 204.37,246.19 206.37,254.38 208.37,262.57 210.18,268.57 211.99,274.58 213.63,283.32 215.28,292.06 217.07,300.89 218.86,309.71 220.37,315.15 221.88,320.59 223.76,324.69 225.65,328.79 225.80,330.07 225.95,331.35 225.68,332.61 225.42,333.87 224.76,334.98 224.11,336.09 223.14,336.94 222.16,337.78 220.97,338.27 219.78,338.75 218.49,338.84 217.21,338.92 215.96,338.58 214.72,338.25 213.65,337.54 212.57,336.82 211.78,335.81 211.00,334.79 210.57,333.57 210.15,332.35 210.14,331.07 210.13,329.78 210.53,328.55 210.93,327.33 211.70,326.30 212.47,325.27 213.53,324.53 214.59,323.80 215.82,323.44 217.06,323.09 218.35,323.15 219.64,323.21 220.84,323.67 222.04,324.14 223.03,324.96 224.02,325.79 224.69,326.88 225.36,327.98 225.65,329.24 225.94,330.49 225.81,331.77 225.68,333.06 225.15,334.23 224.62,335.40 223.75,336.35 222.87,337.29 221.74,337.90 220.60,338.52 219.34,338.74 218.07,338.96 216.79,338.76 215.52,338.56 214.38,337.97 213.23,337.38 212.34,336.45 211.45,335.52 210.89,334.36 210.34,333.19 210.34,333.19 210.34,333.20 209.61,328.19 208.88,323.19 208.20,317.67 207.52,312.15 205.51,303.31 203.50,294.46 201.63,285.97 199.75,277.48 198.68,271.36 197.61,265.24 195.55,257.06 193.49,248.89 190.02,235.13 186.55,221.37 181.07,201.55 175.60,181.74 169.59,155.46 163.59,129.18 159.13,99.24 154.66,69.31 153.87,37.47 153.07,5.63 154.74,-20.08 156.41,-45.79 156.19,-46.67 155.98,-47.54 155.98,-48.44 155.98,-49.34 156.19,-50.21 156.41,-51.09 156.83,-51.88 157.24,-52.68 157.84,-53.36 158.44,-54.03 159.18,-54.54 159.92,-55.05 160.76,-55.37 161.60,-55.69 162.49,-55.80 163.39,-55.91 164.28,-55.80 165.17,-55.69 166.02,-55.37 166.86,-55.05 167.60,-54.54 168.34,-54.03 168.94,-53.36 169.53,-52.68 169.95,-51.89 170.37,-51.09 171.03,-49.26 171.68,-47.42 172.86,-43.00 174.03,-38.57 176.26,-30.93 178.49,-23.29 181.94,-10.87 185.39,1.54 189.32,18.53 193.26,35.52 196.92,58.54 200.58,81.56 201.48,105.50 202.38,129.45 200.74,149.03 199.10,168.61 195.62,181.19 192.14,193.77 187.83,203.33 183.51,212.90 178.90,219.99 174.28,227.08 169.73,231.91 165.17,236.74 161.02,240.39 156.87,244.03 152.01,248.12 147.15,252.21 141.54,255.72 135.94,259.24 127.18,260.84 118.42,262.45 113.31,261.41 108.20,260.37 103.91,258.46 99.62,256.55 95.11,254.79 90.60,253.04 85.31,249.26 80.03,245.48 76.06,242.25 72.08,239.02 66.34,234.47 60.59,229.93 54.73,224.24 48.86,218.55 43.91,211.71 38.96,204.87 35.77,197.57 32.57,190.27 31.39,183.65 30.21,177.02 30.06,169.83 29.92,162.64 30.25,154.89 30.58,147.15 31.94,138.86 33.30,130.57 36.55,125.00 39.79,119.44 44.19,116.19 48.59,112.94 53.91,111.71 59.22,110.48 66.76,112.72 74.30,114.96 80.98,116.99 87.67,119.02 97.16,122.35 106.66,125.68 115.42,129.85 124.19,134.01 129.08,139.00 133.98,143.99 136.70,150.29 139.42,156.59 142.05,165.89 144.67,175.19 146.45,187.55 148.23,199.91 147.20,209.82 146.17,219.73 143.21,226.29 140.24,232.85 136.02,239.26 131.81,245.67 126.34,252.44 120.87,259.21 113.97,265.06 107.07,270.92 99.48,273.68 91.89,276.44 85.34,275.96 78.80,275.49 72.81,273.48 66.83,271.48 59.10,268.24 51.37,265.00 43.96,260.43 36.55,255.87 30.90,250.74 25.25,245.62 19.64,239.66 14.02,233.70 8.36,227.32 2.69,220.94 -3.50,213.59 -9.69,206.23 -15.99,199.48 -22.28,192.72 -29.46,185.89 -36.64,179.07 -43.75,173.31 -50.86,167.54 -53.87,161.49 -56.88,155.44 -61.66,153.26 -66.45,151.08 -62.17,148.60 -57.89,146.12 -53.98,142.53 -50.07,138.95 -45.35,134.15 -40.64,129.36 -35.85,123.91 -31.07,118.45 -26.61,112.02 -22.15,105.58 -18.63,98.89 -15.10,92.20 -12.50,85.57 -9.90,78.94 -8.28,72.26 -6.66,65.57 -6.45,57.44 -6.24,49.31 -6.43,40.72 -6.61,32.14 -6.70,24.12 -6.79,16.09 -6.92,8.04 -7.05,0 -6.95,-0.84 -6.84,-1.68 -6.54,-2.48 -6.24,-3.27 -5.76,-3.97 -5.28,-4.67 -4.64,-5.24 -4.00,-5.80 -3.25,-6.20 -2.50,-6.59 -1.67,-6.79 -0.85,-7.00 0.00,-7.00 0.85,-7.00 1.67,-6.79 2.50,-6.59 3.25,-6.20 4.00,-5.80 4.64,-5.24 5.28,-4.67 5.76,-3.97 6.24,-3.27 6.54,-2.48 6.84,-1.68 6.95,-0.84 7.05,0.00 7.05,0.00 L 7.05,0 Z"></path></g><g transform="translate(884 325) rotate(0 -32.5 17.5)" stroke="none"><path fill="#6741d9" d="M -9.73,2.43 Q -9.73,2.43 -10.64,-0.74 -11.56,-3.91 -19.43,-6.44 -27.29,-8.97 -32.28,-10.30 -37.26,-11.64 -42.35,-12.49 -47.45,-13.35 -52.51,-13.98 -57.58,-14.62 -65.08,-14.26 -72.57,-13.89 -78.46,-11.31 -84.35,-8.72 -88.69,-5.33 -93.04,-1.93 -95.50,2.52 -97.96,6.99 -98.63,11.41 -99.30,15.83 -99.47,22.68 -99.64,29.53 -97.80,35.24 -95.96,40.95 -92.38,44.55 -88.80,48.16 -83.30,48.22 -77.80,48.27 -69.24,45.20 -60.67,42.13 -55.59,38.16 -50.50,34.18 -45.58,28.48 -40.66,22.78 -36.10,15.44 -31.54,8.10 -28.96,2.32 -26.39,-3.45 -25.06,-8.36 -23.74,-13.26 -23.35,-16.00 -22.97,-18.74 -22.63,-19.90 -22.30,-21.07 -21.70,-22.12 -21.10,-23.17 -20.27,-24.04 -19.43,-24.92 -18.42,-25.57 -17.40,-26.22 -16.25,-26.61 -15.11,-26.99 -13.90,-27.10 -12.70,-27.20 -11.50,-27.01 -10.31,-26.82 -9.19,-26.35 -8.08,-25.88 -7.11,-25.16 -6.14,-24.44 -5.37,-23.50 -4.60,-22.57 -4.08,-21.48 -3.56,-20.39 -3.31,-19.21 -3.06,-18.02 -3.11,-16.82 -3.15,-15.61 1.08,-9.80 5.31,-3.99 8.77,2.45 12.24,8.90 15.30,13.85 18.36,18.79 22.24,23.08 26.12,27.37 30.38,26.66 34.65,25.96 35.77,23.30 36.90,20.63 38.34,19.21 39.78,17.79 41.60,16.91 43.42,16.02 45.42,15.76 47.43,15.51 49.41,15.90 51.39,16.30 53.14,17.31 54.90,18.31 56.24,19.83 57.57,21.34 58.36,23.21 59.14,25.07 59.29,27.09 59.44,29.10 58.94,31.06 58.44,33.02 57.34,34.71 56.23,36.41 54.65,37.66 53.06,38.92 51.16,39.60 49.26,40.29 47.24,40.32 45.21,40.36 43.29,39.76 41.36,39.15 39.73,37.96 38.09,36.76 36.93,35.11 35.76,33.46 35.18,31.53 34.60,29.59 34.67,27.57 34.74,25.55 35.45,23.65 36.16,21.76 37.44,20.20 38.72,18.63 40.43,17.55 42.14,16.48 44.11,16.01 46.08,15.53 48.09,15.71 50.10,15.89 51.95,16.70 53.81,17.52 55.30,18.88 56.79,20.24 57.78,22.01 58.76,23.78 59.12,25.76 59.49,27.75 59.20,29.75 58.91,31.75 58.00,33.56 57.09,35.36 57.09,35.36 57.09,35.36 53.32,40.16 49.55,44.95 43.84,47.89 38.13,50.83 32.89,50.84 27.65,50.86 22.79,49.12 17.93,47.39 14.27,43.85 10.61,40.31 6.62,34.33 2.62,28.34 -0.39,23.24 -3.42,18.15 -7.52,11.78 -11.63,5.41 -15.39,-0.72 -19.15,-6.86 -21.06,-12.80 -22.97,-18.74 -22.63,-19.90 -22.30,-21.07 -21.70,-22.12 -21.10,-23.16 -20.27,-24.04 -19.44,-24.92 -18.42,-25.57 -17.40,-26.22 -16.25,-26.61 -15.11,-26.99 -13.90,-27.10 -12.70,-27.20 -11.50,-27.01 -10.31,-26.82 -9.19,-26.35 -8.08,-25.88 -7.11,-25.16 -6.14,-24.44 -5.37,-23.51 -4.60,-22.57 -4.08,-21.48 -3.56,-20.39 -3.31,-19.21 -3.06,-18.02 -3.11,-16.82 -3.15,-15.61 -4.62,-11.92 -6.09,-8.24 -8.93,-2.49 -11.76,3.25 -14.72,9.51 -17.67,15.77 -22.04,24.58 -26.42,33.40 -31.71,41.35 -36.99,49.30 -43.75,55.81 -50.50,62.32 -57.44,65.93 -64.38,69.54 -71.61,71.24 -78.84,72.93 -84.63,72.70 -90.42,72.47 -96.13,70.96 -101.84,69.45 -108.00,63.69 -114.15,57.93 -116.31,54.10 -118.47,50.28 -120.31,45.43 -122.15,40.58 -123.13,34.85 -124.12,29.11 -123.74,21.05 -123.37,12.99 -121.04,4.23 -118.72,-4.52 -116.39,-8.45 -114.06,-12.37 -107.77,-18.44 -101.47,-24.50 -97.76,-26.67 -94.06,-28.85 -89.20,-31.02 -84.35,-33.19 -79.64,-34.32 -74.93,-35.44 -69.79,-35.82 -64.66,-36.19 -59.79,-35.79 -54.92,-35.38 -49.50,-34.67 -44.09,-33.96 -38.05,-33.00 -32.01,-32.04 -25.68,-30.46 -19.35,-28.88 -13.60,-26.61 -7.84,-24.34 -2.34,-20.97 3.15,-17.59 5.63,-13.73 8.11,-9.88 8.92,-6.15 9.73,-2.43 9.87,-1.23 10.02,-0.03 9.88,1.16 9.74,2.36 9.32,3.49 8.89,4.63 8.21,5.62 7.52,6.62 6.62,7.43 5.72,8.23 4.65,8.80 3.58,9.36 2.41,9.65 1.24,9.95 0.03,9.95 -1.17,9.96 -2.35,9.67 -3.52,9.38 -4.59,8.83 -5.67,8.27 -6.57,7.47 -7.48,6.67 -8.17,5.68 -8.86,4.68 -9.29,3.56 -9.73,2.43 -9.73,2.43 L -9.73,2.43 Z"></path></g></svg>